<?xml version="1.0" encoding="iso-8859-1"?>
<!-- Generator: Adobe Illustrator 19.0.0, SVG Export Plug-In . SVG Version: 6.00 Build 0)  -->
<svg version="1.1" id="Capa_1" xmlns="http://www.w3.org/2000/svg" xmlns:xlink="http://www.w3.org/1999/xlink" x="0px" y="0px"
	 viewBox="0 0 512 512" style="enable-background:new 0 0 512 512;" xml:space="preserve">
<path style="fill:#FFA000;" d="M480,0H32C14.368,0,0,14.368,0,32v448c0,17.664,14.368,32,32,32h448c17.664,0,32-14.336,32-32V32
	C512,14.368,497.664,0,480,0z"/>
<g>
	<path style="fill:#FFECB3;" d="M432,256h-32c-18.08,0-34.592,6.24-48,16.384V272c0-8.864-7.168-16-16-16s-16,7.136-16,16v160
		c0,8.832,7.168,16,16,16s16-7.168,16-16v-96c0-26.464,21.536-48,48-48h32c8.832,0,16-7.168,16-16S440.832,256,432,256z"/>
	<path style="fill:#FFECB3;" d="M256,160c0-52.928-43.072-96-96-96H80c-8.832,0-16,7.168-16,16v352c0,8.832,7.168,16,16,16h64
		c61.76,0,112-50.24,112-112c0-38.336-19.36-72.224-48.8-92.416C236.32,227.072,256,195.808,256,160z M224,336
		c0,44.128-35.904,80-80,80H96V256h48C188.096,256,224,291.872,224,336z M160,224H96V96h64c35.296,0,64,28.704,64,64
		S195.296,224,160,224z"/>
</g>
<g>
</g>
<g>
</g>
<g>
</g>
<g>
</g>
<g>
</g>
<g>
</g>
<g>
</g>
<g>
</g>
<g>
</g>
<g>
</g>
<g>
</g>
<g>
</g>
<g>
</g>
<g>
</g>
<g>
</g>
</svg>
