<?xml version="1.0" encoding="iso-8859-1"?>
<!-- Generator: Adobe Illustrator 19.0.0, SVG Export Plug-In . SVG Version: 6.00 Build 0)  -->
<svg version="1.1" id="Capa_1" xmlns="http://www.w3.org/2000/svg" xmlns:xlink="http://www.w3.org/1999/xlink" x="0px" y="0px"
	 viewBox="0 0 512 512" style="enable-background:new 0 0 512 512;" xml:space="preserve">
<path style="fill:#512DA8;" d="M480,0H32C14.368,0,0,14.368,0,32v448c0,17.664,14.368,32,32,32h448c17.664,0,32-14.336,32-32V32
	C512,14.368,497.664,0,480,0z"/>
<g>
	<path style="fill:#D1C4E9;" d="M191.424,75.808c-3.808-13.952-27.072-13.952-30.88,0l-96,352
		c-2.336,8.544,2.688,17.344,11.232,19.648c8.384,2.272,17.312-2.72,19.648-11.232L127.136,320h97.728l31.68,116.224
		C258.496,443.328,264.96,448,272,448c1.408,0,2.816-0.192,4.224-0.576c8.544-2.304,13.536-11.136,11.232-19.648L191.424,75.808z
		 M135.872,288L176,140.8L216.128,288H135.872z"/>
	<path style="fill:#D1C4E9;" d="M384,224c-35.296,0-64,28.704-64,64v96c0,35.296,28.704,64,64,64
		c17.088,0,33.152-6.688,45.248-18.816c6.208-6.24,6.208-16.384-0.064-22.624c-6.24-6.176-16.384-6.24-22.624,0.064
		C400.544,412.672,392.544,416,384,416c-17.664,0-32-14.336-32-32v-32h80c8.832,0,16-7.168,16-16v-48
		C448,252.704,419.296,224,384,224z M416,320h-64v-32c0-17.632,14.336-32,32-32s32,14.368,32,32V320z"/>
</g>
<g>
</g>
<g>
</g>
<g>
</g>
<g>
</g>
<g>
</g>
<g>
</g>
<g>
</g>
<g>
</g>
<g>
</g>
<g>
</g>
<g>
</g>
<g>
</g>
<g>
</g>
<g>
</g>
<g>
</g>
</svg>
