<?xml version="1.0" encoding="iso-8859-1"?>
<!-- Generator: Adobe Illustrator 19.0.0, SVG Export Plug-In . SVG Version: 6.00 Build 0)  -->
<svg version="1.1" id="Capa_1" xmlns="http://www.w3.org/2000/svg" xmlns:xlink="http://www.w3.org/1999/xlink" x="0px" y="0px"
	 viewBox="0 0 512 512" style="enable-background:new 0 0 512 512;" xml:space="preserve">
<path style="fill:#E64A19;" d="M480,0H32C14.368,0,0,14.368,0,32v448c0,17.664,14.368,32,32,32h448c17.664,0,32-14.336,32-32V32
	C512,14.368,497.664,0,480,0z"/>
<g>
	<path style="fill:#FFE0B2;" d="M368.64,224c-8.8,0-16.16-7.168-16.16-16s6.976-16,15.84-16h0.32c8.832,0,16,7.168,16,16
		S377.472,224,368.64,224z"/>
	<path style="fill:#FFE0B2;" d="M368,256c-8.832,0-16,7.136-16,16v160c0,8.832,7.168,16,16,16s16-7.168,16-16V272
		C384,263.136,376.832,256,368,256z"/>
	<path style="fill:#FFE0B2;" d="M223.424,75.808c-3.808-13.952-27.072-13.952-30.88,0l-96,352
		c-2.336,8.544,2.688,17.344,11.232,19.648c8.448,2.272,17.344-2.72,19.648-11.232L159.136,320h97.728l31.68,116.224
		C290.496,443.328,296.96,448,304,448c1.376,0,2.816-0.192,4.224-0.576c8.544-2.304,13.536-11.136,11.232-19.648L223.424,75.808z
		 M167.872,288L208,140.8L248.128,288H167.872z"/>
</g>
<g>
</g>
<g>
</g>
<g>
</g>
<g>
</g>
<g>
</g>
<g>
</g>
<g>
</g>
<g>
</g>
<g>
</g>
<g>
</g>
<g>
</g>
<g>
</g>
<g>
</g>
<g>
</g>
<g>
</g>
</svg>
