<?xml version="1.0" encoding="iso-8859-1"?>
<!-- Generator: Adobe Illustrator 19.0.0, SVG Export Plug-In . SVG Version: 6.00 Build 0)  -->
<svg version="1.1" id="Capa_1" xmlns="http://www.w3.org/2000/svg" xmlns:xlink="http://www.w3.org/1999/xlink" x="0px" y="0px"
	 viewBox="0 0 512 512" style="enable-background:new 0 0 512 512;" xml:space="preserve">
<path style="fill:#7B1FA2;" d="M480,0H32C14.368,0,0,14.368,0,32v448c0,17.664,14.368,32,32,32h448c17.664,0,32-14.336,32-32V32
	C512,14.368,497.664,0,480,0z"/>
<g>
	<path style="fill:#E1BEE7;" d="M368,128c-8.832,0-16,7.168-16,16v114.944c-5.024-1.792-10.368-2.944-16-2.944h-16
		c-35.296,0-64,28.704-64,64v64c0,35.296,28.704,64,64,64h16c7.392,0,14.336-1.824,20.576-4.832C359.488,446.144,363.52,448,368,448
		c8.832,0,16-7.168,16-16v-32v-96V144C384,135.168,376.832,128,368,128z M336,416h-16c-17.664,0-32-14.336-32-32v-64
		c0-17.664,14.336-32,32-32h16c8.8,0,16,7.2,16,16v96C352,408.8,344.8,416,336,416z"/>
	<path style="fill:#E1BEE7;" d="M144,64c-8.832,0-16,7.168-16,16v352c0,8.832,7.168,16,16,16s16-7.168,16-16V80
		C160,71.168,152.832,64,144,64z"/>
</g>
<g>
</g>
<g>
</g>
<g>
</g>
<g>
</g>
<g>
</g>
<g>
</g>
<g>
</g>
<g>
</g>
<g>
</g>
<g>
</g>
<g>
</g>
<g>
</g>
<g>
</g>
<g>
</g>
<g>
</g>
</svg>
