<?xml version="1.0" encoding="iso-8859-1"?>
<!-- Generator: Adobe Illustrator 19.0.0, SVG Export Plug-In . SVG Version: 6.00 Build 0)  -->
<svg version="1.1" id="Capa_1" xmlns="http://www.w3.org/2000/svg" xmlns:xlink="http://www.w3.org/1999/xlink" x="0px" y="0px"
	 viewBox="0 0 512 512" style="enable-background:new 0 0 512 512;" xml:space="preserve">
<g>
	<path style="fill:#37474F;" d="M110.72,80h-64L16,176h94.72c26.496,0,48-21.504,48-48S137.216,80,110.72,80z"/>
	<path style="fill:#37474F;" d="M302.72,80h-64L208,176h94.72c26.496,0,48-21.504,48-48S329.216,80,302.72,80z"/>
	<path style="fill:#37474F;" d="M270.72,208h-64L176,304h94.72c26.496,0,48-21.504,48-48S297.216,208,270.72,208z"/>
	<path style="fill:#37474F;" d="M464,144h-64l-30.72,96H464c26.496,0,48-21.504,48-48S490.496,144,464,144z"/>
	<path style="fill:#37474F;" d="M432,288h-64l-30.72,96H432c26.496,0,48-21.504,48-48S458.496,288,432,288z"/>
	<path style="fill:#37474F;" d="M240,336h-64l-30.72,96H240c26.496,0,48-21.504,48-48S266.496,336,240,336z"/>
	<path style="fill:#37474F;" d="M94.72,208h-64L0,304h94.72c26.496,0,48-21.504,48-48S121.216,208,94.72,208z"/>
</g>
<g>
</g>
<g>
</g>
<g>
</g>
<g>
</g>
<g>
</g>
<g>
</g>
<g>
</g>
<g>
</g>
<g>
</g>
<g>
</g>
<g>
</g>
<g>
</g>
<g>
</g>
<g>
</g>
<g>
</g>
</svg>
