<?xml version="1.0" encoding="iso-8859-1"?>
<!-- Generator: Adobe Illustrator 19.0.0, SVG Export Plug-In . SVG Version: 6.00 Build 0)  -->
<svg version="1.1" id="Capa_1" xmlns="http://www.w3.org/2000/svg" xmlns:xlink="http://www.w3.org/1999/xlink" x="0px" y="0px"
	 viewBox="0 0 512.008 512.008" style="enable-background:new 0 0 512.008 512.008;" xml:space="preserve">
<g>
	<path style="fill:#FFC107;" d="M256.002,256c70.592,0,128-57.408,128-128s-57.408-128-128-128s-128,57.408-128,128
		S185.41,256,256.002,256z M256.002,64c35.296,0,64,28.704,64,64s-28.704,64-64,64s-64-28.704-64-64S220.706,64,256.002,64z"/>
	<path style="fill:#FFC107;" d="M425.73,252.448c-12.512-12.512-32.736-12.512-45.248,0c-68.608,68.608-180.288,68.608-248.928,0
		c-12.512-12.512-32.736-12.512-45.248,0s-12.512,32.736,0,45.28c39.808,39.808,90.272,62.496,142.304,68.416l-91.232,91.232
		c-12.512,12.512-12.512,32.736,0,45.248c12.512,12.512,32.736,12.512,45.248,0l73.376-73.376l73.376,73.376
		c6.24,6.24,14.432,9.376,22.624,9.376s16.384-3.136,22.624-9.376c12.512-12.512,12.512-32.736,0-45.248l-91.232-91.232
		c52.032-5.92,102.496-28.608,142.304-68.416C438.21,285.216,438.21,264.96,425.73,252.448z"/>
</g>
<g>
</g>
<g>
</g>
<g>
</g>
<g>
</g>
<g>
</g>
<g>
</g>
<g>
</g>
<g>
</g>
<g>
</g>
<g>
</g>
<g>
</g>
<g>
</g>
<g>
</g>
<g>
</g>
<g>
</g>
</svg>
