<?xml version="1.0" encoding="iso-8859-1"?>
<!-- Generator: Adobe Illustrator 19.0.0, SVG Export Plug-In . SVG Version: 6.00 Build 0)  -->
<svg version="1.1" id="Capa_1" xmlns="http://www.w3.org/2000/svg" xmlns:xlink="http://www.w3.org/1999/xlink" x="0px" y="0px"
	 viewBox="0 0 512 512" style="enable-background:new 0 0 512 512;" xml:space="preserve">
<path style="fill:#E64A19;" d="M352,48.011c-30.528,0-59.456,3.008-83.68,8.736l7.328,31.168
	c21.888-5.184,48.256-7.904,76.352-7.904c84,0,128,23.776,128,32s-44,32-128,32c-28.096,0-54.464-2.72-76.32-7.904l-7.36,31.168
	c24.224,5.728,53.152,8.736,83.68,8.736c47.328,0,96.8-7.584,128-23.616v55.616c0,8.224-44,32-128,32
	c-28.096,0-54.464-2.72-76.32-7.904l-7.36,31.168c24.224,5.728,53.152,8.736,83.68,8.736c47.328,0,96.8-7.584,128-23.616v55.616
	c0,8.224-44,32-128,32c-28.096,0-54.464-2.72-76.32-7.872l-7.328,31.136c24.192,5.696,53.12,8.736,83.648,8.736
	c47.328,0,96.8-7.584,128-23.616v55.616c0,8.224-44,32-128,32c-28.096,0-54.464-2.72-76.32-7.872l-7.328,31.136
	c24.192,5.696,53.12,8.736,83.648,8.736c77.056,0,160-20.032,160-64v-288C512,68.043,429.056,48.011,352,48.011z"/>
<path style="fill:#FF5722;" d="M282.208,19.691c-3.648-3.04-8.544-4.352-13.152-3.392l-256,48C5.472,65.707,0,72.299,0,80.011v352
	c0,7.68,5.472,14.304,13.056,15.712l256,48c0.96,0.192,1.952,0.288,2.944,0.288c3.712,0,7.328-1.28,10.208-3.68
	c3.68-3.04,5.792-7.584,5.792-12.32v-448C288,27.243,285.888,22.731,282.208,19.691z"/>
<path style="fill:#FAFAFA;" d="M223.04,330.539l-64-176c-4.608-12.672-25.472-12.672-30.048,0l-64,176
	c-3.04,8.32,1.28,17.504,9.568,20.512c8.352,3.072,17.472-1.248,20.512-9.568l13.6-37.472h70.688l13.632,37.472
	c2.336,6.496,8.48,10.528,15.008,10.528c1.824,0,3.648-0.32,5.472-0.96C221.76,348.043,226.048,338.859,223.04,330.539z
	 M120.288,272.011L144,206.827l23.712,65.184H120.288z"/>
<g>
</g>
<g>
</g>
<g>
</g>
<g>
</g>
<g>
</g>
<g>
</g>
<g>
</g>
<g>
</g>
<g>
</g>
<g>
</g>
<g>
</g>
<g>
</g>
<g>
</g>
<g>
</g>
<g>
</g>
</svg>
