<?xml version="1.0" encoding="iso-8859-1"?>
<!-- Generator: Adobe Illustrator 19.0.0, SVG Export Plug-In . SVG Version: 6.00 Build 0)  -->
<svg version="1.1" id="Capa_1" xmlns="http://www.w3.org/2000/svg" xmlns:xlink="http://www.w3.org/1999/xlink" x="0px" y="0px"
	 viewBox="0 0 511.988 511.988" style="enable-background:new 0 0 511.988 511.988;" xml:space="preserve">
<path style="fill:#37474F;" d="M271.286,88.44c-20.128-26.048-42.88-44.576-69.088-53.12l-0.832-0.192
	c-49.696-7.904-93.152-1.28-127.584,26.464C39.67,89.112,14.87,137.272,2.294,212.6l-0.064,0.448
	c-4.512,56.32-2.4,105.536,8.384,145.312c10.976,40.448,30.976,71.264,62.112,90.048l0,0
	c46.528,29.824,89.376,36.448,129.344,24.704c37.568-11.04,72.224-38.272,104.704-77.664c14.4,26.848,31.488,48.256,51.84,62.816
	c22.496,16.096,48.864,23.776,79.872,21.216l1.6-0.416c27.2-11.04,45.984-26.048,57.536-44.096
	c12.416-19.392,16.384-42.112,13.44-67.168l-0.576-4.864l-4.928,0.096l-48.832,0.832l-2.272,0.032l-1.568,1.6
	c-19.424,20-35.936,24.48-49.92,15.168c-15.136-10.048-28.32-35.008-39.808-72.992l85.728-246.464l0,0
	c2.784-6.816,4.096-12.736,3.328-17.472c-0.992-6.176-4.768-10.112-12.128-11.104l-0.736,0.064l-69.12,0.416l-3.872,0.032
	l-1.248,3.616l-46.72,134.944C304.246,139.352,288.726,111.032,271.286,88.44L271.286,88.44z M152.086,111.64
	c31.328,0.096,56.032,10.176,77.024,36.896c20.32,25.856,36.96,67.456,52.704,131.2l-0.224,3.328
	c-19.488,47.168-41.472,77.216-65.28,94.656c-24.288,17.792-50.304,22.496-77.408,18.816l-0.832-0.16
	c-35.232-10.528-56.16-43.2-65.312-82.88c-5.952-25.824-6.88-54.624-3.552-82.144c3.36-27.584,11.008-53.984,22.336-74.816
	c14.528-26.752,35.104-44.576,60.48-44.896H152.086L152.086,111.64z"/>
<g>
</g>
<g>
</g>
<g>
</g>
<g>
</g>
<g>
</g>
<g>
</g>
<g>
</g>
<g>
</g>
<g>
</g>
<g>
</g>
<g>
</g>
<g>
</g>
<g>
</g>
<g>
</g>
<g>
</g>
</svg>
