<?xml version="1.0" encoding="iso-8859-1"?>
<!-- Generator: Adobe Illustrator 19.0.0, SVG Export Plug-In . SVG Version: 6.00 Build 0)  -->
<svg version="1.1" id="Capa_1" xmlns="http://www.w3.org/2000/svg" xmlns:xlink="http://www.w3.org/1999/xlink" x="0px" y="0px"
	 viewBox="0 0 512 512" style="enable-background:new 0 0 512 512;" xml:space="preserve">
<path style="fill:#7B1FA2;" d="M480,0H32C14.368,0,0,14.368,0,32v448c0,17.664,14.368,32,32,32h448c17.664,0,32-14.336,32-32V32
	C512,14.368,497.664,0,480,0z"/>
<g>
	<path style="fill:#E1BEE7;" d="M192,64h-80c-8.832,0-16,7.168-16,16v352c0,8.832,7.168,16,16,16s16-7.168,16-16V256h64
		c52.928,0,96-43.072,96-96S244.928,64,192,64z M192,224h-64V96h64c35.296,0,64,28.704,64,64S227.296,224,192,224z"/>
	<path style="fill:#E1BEE7;" d="M400,256h-32c-18.08,0-34.592,6.24-48,16.384V272c0-8.864-7.168-16-16-16s-16,7.136-16,16v160
		c0,8.832,7.168,16,16,16s16-7.168,16-16v-96c0-26.464,21.536-48,48-48h32c8.832,0,16-7.168,16-16S408.832,256,400,256z"/>
</g>
<g>
</g>
<g>
</g>
<g>
</g>
<g>
</g>
<g>
</g>
<g>
</g>
<g>
</g>
<g>
</g>
<g>
</g>
<g>
</g>
<g>
</g>
<g>
</g>
<g>
</g>
<g>
</g>
<g>
</g>
</svg>
