<?xml version="1.0" encoding="iso-8859-1"?>
<!-- Generator: Adobe Illustrator 19.0.0, SVG Export Plug-In . SVG Version: 6.00 Build 0)  -->
<svg version="1.1" id="Capa_1" xmlns="http://www.w3.org/2000/svg" xmlns:xlink="http://www.w3.org/1999/xlink" x="0px" y="0px"
	 viewBox="0 0 512 512" style="enable-background:new 0 0 512 512;" xml:space="preserve">
<path style="fill:#1976D2;" d="M480,0H32C14.368,0,0,14.368,0,32v448c0,17.664,14.368,32,32,32h448c17.664,0,32-14.336,32-32V32
	C512,14.368,497.664,0,480,0z"/>
<g>
	<path style="fill:#BBDEFB;" d="M352,256c-12.256,0-23.616,3.648-33.344,9.632C316.192,259.968,310.56,256,304,256
		c-8.832,0-16,7.168-16,16v48v112c0,8.832,7.168,16,16,16s16-7.168,16-16V320c0-17.664,14.336-32,32-32s32,14.336,32,32v112
		c0,8.832,7.168,16,16,16s16-7.168,16-16V320C416,284.704,387.296,256,352,256z"/>
	<path style="fill:#BBDEFB;" d="M240,96c8.832,0,16-7.168,16-16s-7.168-16-16-16H112c-8.832,0-16,7.168-16,16v352
		c0,8.832,7.168,16,16,16h128c8.832,0,16-7.168,16-16s-7.168-16-16-16H128V256h112c8.832,0,16-7.168,16-16s-7.168-16-16-16H128V96
		H240z"/>
</g>
<g>
</g>
<g>
</g>
<g>
</g>
<g>
</g>
<g>
</g>
<g>
</g>
<g>
</g>
<g>
</g>
<g>
</g>
<g>
</g>
<g>
</g>
<g>
</g>
<g>
</g>
<g>
</g>
<g>
</g>
</svg>
