<?xml version="1.0" encoding="iso-8859-1"?>
<!-- Generator: Adobe Illustrator 19.0.0, SVG Export Plug-In . SVG Version: 6.00 Build 0)  -->
<svg version="1.1" id="Capa_1" xmlns="http://www.w3.org/2000/svg" xmlns:xlink="http://www.w3.org/1999/xlink" x="0px" y="0px"
	 viewBox="0 0 512 512" style="enable-background:new 0 0 512 512;" xml:space="preserve">
<path style="fill:#1565C0;" d="M506.144,211.626L275.968,23.018c-11.744-9.408-28.16-9.376-40.096,0.128L5.856,211.626
	C2.144,214.666,0,219.21,0,224.01v240c0,17.664,14.368,32,32,32h448c17.664,0,32-14.336,32-32v-240
	C512,219.21,509.856,214.666,506.144,211.626z"/>
<polygon style="fill:#CFD8DC;" points="256,285.258 169.376,198.634 214.624,153.386 256,194.762 425.376,25.386 470.624,70.634 "/>
<path style="fill:#2196F3;" d="M0,224.01l448,272H32c-17.664,0-32-14.336-32-32V224.01z"/>
<path style="fill:#64B5F6;" d="M512,224.01l-448,272h416c17.664,0,32-14.336,32-32V224.01z"/>
<g>
</g>
<g>
</g>
<g>
</g>
<g>
</g>
<g>
</g>
<g>
</g>
<g>
</g>
<g>
</g>
<g>
</g>
<g>
</g>
<g>
</g>
<g>
</g>
<g>
</g>
<g>
</g>
<g>
</g>
</svg>
