<?xml version="1.0" encoding="iso-8859-1"?>
<!-- Generator: Adobe Illustrator 19.0.0, SVG Export Plug-In . SVG Version: 6.00 Build 0)  -->
<svg version="1.1" id="Capa_1" xmlns="http://www.w3.org/2000/svg" xmlns:xlink="http://www.w3.org/1999/xlink" x="0px" y="0px"
	 viewBox="0 0 512 512" style="enable-background:new 0 0 512 512;" xml:space="preserve">
<g>
	<path style="fill:#03A9F4;" d="M192.009,0c0,0,179.2,20.992,91.616,321.696C269.801,369.248,224.425,512,127.209,512
		c-97.184-3.008-53.344-104.608-53.344-104.608s23.488-62.88,76-85.248c34.464,15.008,79.616,33.856,78.592,32.864
		C229.481,356,101.545,285.504,101.545,160C101.545,56.48,127.209,0,192.009,0z"/>
	<path style="fill:#03A9F4;" d="M437.609,144.352c23.968,7.104,10.976,102.272-87.072,207.648
		c-4.64,60.672-39.104,150.656-83.968,142.656c-46.208-14.656,19.04-141.568,34.08-175.808S384.873,128.704,437.609,144.352z"/>
</g>
<g>
</g>
<g>
</g>
<g>
</g>
<g>
</g>
<g>
</g>
<g>
</g>
<g>
</g>
<g>
</g>
<g>
</g>
<g>
</g>
<g>
</g>
<g>
</g>
<g>
</g>
<g>
</g>
<g>
</g>
</svg>
