<?xml version="1.0" encoding="iso-8859-1"?>
<!-- Generator: Adobe Illustrator 19.0.0, SVG Export Plug-In . SVG Version: 6.00 Build 0)  -->
<svg version="1.1" id="Capa_1" xmlns="http://www.w3.org/2000/svg" xmlns:xlink="http://www.w3.org/1999/xlink" x="0px" y="0px"
	 viewBox="0 0 512 512" style="enable-background:new 0 0 512 512;" xml:space="preserve">
<path style="fill:#ECEFF1;" d="M448,192c0,106.048-128,320-192,320S64,298.048,64,192S149.952,0,256,0S448,85.952,448,192z"/>
<path style="fill:#D32F2F;" d="M256,64c-12.992,0-25.28,2.496-37.088,6.112C240.768,80.288,256,102.304,256,128
	c0,35.36-28.64,64-64,64c-25.696,0-47.712-15.232-57.888-37.088C130.496,166.72,128,179.008,128,192c0,70.688,57.312,128,128,128
	s128-57.312,128-128S326.688,64,256,64z"/>
<g>
</g>
<g>
</g>
<g>
</g>
<g>
</g>
<g>
</g>
<g>
</g>
<g>
</g>
<g>
</g>
<g>
</g>
<g>
</g>
<g>
</g>
<g>
</g>
<g>
</g>
<g>
</g>
<g>
</g>
</svg>
