<?xml version="1.0" encoding="iso-8859-1"?>
<!-- Generator: Adobe Illustrator 19.0.0, SVG Export Plug-In . SVG Version: 6.00 Build 0)  -->
<svg version="1.1" id="Capa_1" xmlns="http://www.w3.org/2000/svg" xmlns:xlink="http://www.w3.org/1999/xlink" x="0px" y="0px"
	 viewBox="0 0 512 512" style="enable-background:new 0 0 512 512;" xml:space="preserve">
<path style="fill:#CDDC39;" d="M496,0v258.88v35.168v28.256c0,11.36-7.776,23.712-22.208,30.336C440.8,367.84,16,512,16,512
	l94.336-481.792c0,0,7.68-30.208,48.448-30.208S496,0,496,0L496,0z"/>
<path style="fill:#37474F;" d="M372.256,161.024c-21.024-56.992-94.464-31.328-95.424-12.352l-3.68-0.96V52.768l-62.848,9.504
	v240.256c0,0,37.024,34.176,97.216,24.704c60.224-9.504,69.376-59.84,69.376-59.84S393.248,218.016,372.256,161.024z
	 M316.48,271.392c-10.528,18.24-43.328,7.392-43.328,7.392v-93.056c0,0,6.048-11.392,30.912-8.544
	C328.928,180.032,324,218.016,324,223.712C323.968,229.408,326.976,253.152,316.48,271.392z"/>
<g>
</g>
<g>
</g>
<g>
</g>
<g>
</g>
<g>
</g>
<g>
</g>
<g>
</g>
<g>
</g>
<g>
</g>
<g>
</g>
<g>
</g>
<g>
</g>
<g>
</g>
<g>
</g>
<g>
</g>
</svg>
