<?xml version="1.0" encoding="iso-8859-1"?>
<!-- Generator: Adobe Illustrator 19.0.0, SVG Export Plug-In . SVG Version: 6.00 Build 0)  -->
<svg version="1.1" id="Capa_1" xmlns="http://www.w3.org/2000/svg" xmlns:xlink="http://www.w3.org/1999/xlink" x="0px" y="0px"
	 viewBox="0 0 512 512" style="enable-background:new 0 0 512 512;" xml:space="preserve">
<path style="fill:#37474F;" d="M480,0H32C14.368,0,0,14.368,0,32v448c0,17.664,14.368,32,32,32h448c17.664,0,32-14.336,32-32V32
	C512,14.368,497.664,0,480,0z"/>
<g>
	<path style="fill:#CFD8DC;" d="M240,416H128V80c0-8.832-7.168-16-16-16s-16,7.168-16,16v352c0,8.832,7.168,16,16,16h128
		c8.832,0,16-7.168,16-16S248.832,416,240,416z"/>
	<path style="fill:#CFD8DC;" d="M400,256h-32c-18.08,0-34.592,6.24-48,16.384V272c0-8.864-7.168-16-16-16s-16,7.136-16,16v160
		c0,8.832,7.168,16,16,16s16-7.168,16-16v-96c0-26.464,21.536-48,48-48h32c8.832,0,16-7.168,16-16S408.832,256,400,256z"/>
</g>
<g>
</g>
<g>
</g>
<g>
</g>
<g>
</g>
<g>
</g>
<g>
</g>
<g>
</g>
<g>
</g>
<g>
</g>
<g>
</g>
<g>
</g>
<g>
</g>
<g>
</g>
<g>
</g>
<g>
</g>
</svg>
