<svg id="Capa_1" enable-background="new 0 0 512 512" height="512" viewBox="0 0 512 512" width="512" xmlns="http://www.w3.org/2000/svg"><g><path d="m336.698 256.172h-161.402c-26.157 1.383-46.941 23.03-46.941 49.531v42.915h255.291v-42.915c-.001-26.503-20.788-48.151-46.948-49.531z" fill="#665e66"/><g fill="#544f57"><path d="m213.066 299.231c1.104.455 2.343.455 3.447 0 .4-.165.8-.331 1.198-.499 0 0-12.768-22.195-20.456-31.545 0 0-16.067-5.583-21.96-11.014-6.416.339-12.508 1.898-18.05 4.448 15.596 16.695 34.624 29.877 55.821 38.61z"/><path d="m336.698 256.172c-.731.673-2.368-.172-2.174 2.038 5.007 7.747 7.914 16.979 7.914 26.89v6.481c0 20.122-16.312 36.435-36.435 36.435h-177.648v20.604l255.291 13.902v-56.817c-.001-26.505-20.788-48.153-46.948-49.533z"/><path d="m285.675 365.52c-4.267 0-7.726-3.459-7.726-7.726v-22.036c0-3.757-2.244-7.108-5.716-8.538l-19.49-8.029c-3.945-1.626-5.826-6.142-4.201-10.087 1.626-3.946 6.14-5.825 10.087-4.201l19.49 8.029c9.284 3.825 15.283 12.785 15.283 22.826v22.036c-.001 4.268-3.46 7.726-7.727 7.726z"/></g><path d="m293.401 348.619v-12.862c0-2.684-.429-5.29-1.234-7.742h-18.416c2.593 1.681 4.197 4.566 4.197 7.742v20.219z" fill="#454045"/><path d="m390.318 204.762-70.334-22.033-.01.135h-127.954l-.01-.135-70.334 22.033c-4.488 1.406-5.445 7.332-1.628 10.08l38.956 28.041c12.217 8.794 23.243 19.133 32.803 30.76 16.698 20.309 38.157 36.176 62.466 46.192l1.72.708.007.008.011-.012 1.709-.704c24.31-10.016 45.768-25.884 62.466-46.192 9.56-11.627 20.586-21.967 32.803-30.76l38.956-28.041c3.818-2.748 2.861-8.674-1.627-10.08z" fill="#8b818e"/><path d="m380.029 485.307h-248.058c-6.395 0-11.843-4.646-12.852-10.96l-17.695-110.657c-1.265-7.908 4.844-15.071 12.852-15.071h283.448c8.008 0 14.117 7.163 12.852 15.071l-17.695 110.657c-1.01 6.314-6.457 10.96-12.852 10.96z" fill="#c6c1c8"/><path d="m397.724 348.619h-29.24l-12.026 75.204c-3.766 23.552-24.084 40.88-47.936 40.88h-190.945l1.542 9.643c1.01 6.315 6.457 10.96 12.852 10.96l124.029 20.689 124.029-20.688c6.395 0 11.843-4.646 12.852-10.96l17.695-110.656c1.265-7.909-4.844-15.072-12.852-15.072z" fill="#afaab4"/><ellipse cx="256" cy="416.963" fill="#f1f1f4" rx="24.617" ry="21.221"/><path d="m322.686 175.134h-2.131l-6.222-43.733h21.013c8.136 0 14.731 6.595 14.731 14.731v1.611c0 15.128-12.263 27.391-27.391 27.391z" fill="#df9380"/><path d="m189.314 175.134h2.132l4.21-43.733h-19.001c-8.136 0-14.731 6.595-14.731 14.731v1.611c-.001 15.128 12.262 27.391 27.39 27.391z" fill="#df9380"/><path d="m293.17 249.07c-1.409-2.271-2.222-4.949-2.222-7.818v-14.798c-12.261 8.36-57.633 8.36-69.895 0v14.798c0 2.868-.813 5.547-2.222 7.818-.691 1.114-.667 2.531-.036 3.68l37.205 67.801 37.206-67.802c.63-1.148.655-2.565-.036-3.679z" fill="#eaac9d"/><path d="m321.205 166.232-65.208-30.812-65.202 30.812 1.225 16.631c2.468 33.512 43.783 56.736 63.98 56.736 20.198 0 61.512-23.224 63.98-56.736z" fill="#ffcbbe"/><path d="m187.815 125.777 2.979 40.455h45.749c3.644 0 7.139-1.448 9.716-4.025 5.366-5.366 14.066-5.366 19.432 0 2.577 2.577 6.072 4.025 9.716 4.025h45.796l2.979-40.454z" fill="#eaac9d"/><path d="m255.842 204.758c-4.267 0-7.726-3.459-7.726-7.726s3.459-7.726 7.726-7.726c3.487 0 6.324-2.837 6.324-6.324v-17.697c0-4.268 3.459-7.726 7.726-7.726s7.726 3.459 7.726 7.726v17.697c0 12.007-9.769 21.776-21.776 21.776z" fill="#eaac9d"/><path d="m269.892 157.557c-2.503 0-4.728 1.191-6.14 3.036.683.47 1.333 1.007 1.94 1.614 2.577 2.577 6.072 4.025 9.716 4.025h2.21v-.949c0-4.267-3.459-7.726-7.726-7.726z" fill="#df9380"/><path d="m195.51 61.348c-38.916 5.975-65.277 17.506-65.277 30.752 0 8.899 11.899 17.025 31.511 23.211 20.407 6.437 39.674 16.269 56.196 29.865 9.688 7.972 23.156 12.938 38.06 13.006 14.904-.068 28.372-5.034 38.06-13.006 16.523-13.597 35.79-23.428 56.196-29.865 19.612-6.186 31.511-14.312 31.511-23.211 0-13.246-26.362-24.777-65.277-30.752z" fill="#8b818e"/><path d="m195.674 99.683c38.903 13.034 81.75 13.034 120.65 0l1.776-.595c3.596-1.205 5.7-4.931 4.876-8.632l-18.654-83.718c-1.002-4.499-5.371-7.41-9.909-6.603l-4.061.722c-22.717 4.039-45.967 4.04-68.684.003l-4.083-.726c-4.538-.807-8.906 2.104-9.908 6.603l-18.654 83.719c-.825 3.701 1.28 7.427 4.875 8.632z" fill="#665e66"/><path d="m322.976 90.456-18.654-83.718c-1.002-4.499-5.371-7.41-9.909-6.603l-4.061.722c-7.736 1.376-15.533 2.282-23.351 2.721l14.358 64.438c1.057 4.745-1.641 9.522-6.251 11.066-27.612 9.25-56.82 11.974-85.372 8.174l-.713 3.201c-.825 3.701 1.28 7.427 4.875 8.632l1.775.595c38.903 13.034 81.75 13.034 120.65 0l1.776-.595c3.597-1.205 5.702-4.932 4.877-8.633z" fill="#544f57"/><path d="m395.122 512h-278.244c-7.926 0-14.352-6.425-14.352-14.352v-6.255c0-3.361 2.725-6.086 6.086-6.086h294.775c3.361 0 6.086 2.725 6.086 6.086v6.255c.001 7.927-6.425 14.352-14.351 14.352z" fill="#c6c1c8"/></g></svg>